TITLE ""
FILE "Step2_Track06.mp3" MP3
  TRACK 01 AUDIO
    TITLE "Step2_Track06_01"
    INDEX 01 00:00:00
  TRACK 02 AUDIO
    TITLE "Step2_Track06_02"
    INDEX 01 00:00:24
  TRACK 03 AUDIO
    TITLE "Step2_Track06_03"
    INDEX 01 00:01:53
  TRACK 04 AUDIO
    TITLE "Step2_Track06_04"
    INDEX 01 00:02:25
  TRACK 05 AUDIO
    TITLE "Step2_Track06_05"
    INDEX 01 00:03:24
  TRACK 06 AUDIO
    TITLE "Step2_Track06_06"
    INDEX 01 00:03:42
  TRACK 07 AUDIO
    TITLE "Step2_Track06_07"
    INDEX 01 00:06:25
  TRACK 08 AUDIO
    TITLE "Step2_Track06_08"
    INDEX 01 00:06:62
  TRACK 09 AUDIO
    TITLE "Step2_Track06_09"
    INDEX 01 00:07:57
  TRACK 10 AUDIO
    TITLE "Step2_Track06_10"
    INDEX 01 00:07:71
  TRACK 11 AUDIO
    TITLE "Step2_Track06_11"
    INDEX 01 00:10:36
  TRACK 12 AUDIO
    TITLE "Step2_Track06_12"
    INDEX 01 00:10:60
  TRACK 13 AUDIO
    TITLE "Step2_Track06_13"
    INDEX 01 00:11:55
  TRACK 14 AUDIO
    TITLE "Step2_Track06_14"
    INDEX 01 00:11:65
  TRACK 15 AUDIO
    TITLE "Step2_Track06_15"
    INDEX 01 00:14:50
  TRACK 16 AUDIO
    TITLE "Step2_Track06_16"
    INDEX 01 00:15:02
  TRACK 17 AUDIO
    TITLE "Step2_Track06_17"
    INDEX 01 00:15:75
  TRACK 18 AUDIO
    TITLE "Step2_Track06_18"
    INDEX 01 00:16:09
  TRACK 19 AUDIO
    TITLE "Step2_Track06_19"
    INDEX 01 00:18:51
  TRACK 20 AUDIO
    TITLE "Step2_Track06_20"
    INDEX 01 00:19:17
  TRACK 21 AUDIO
    TITLE "Step2_Track06_21"
    INDEX 01 00:20:11
  TRACK 22 AUDIO
    TITLE "Step2_Track06_22"
    INDEX 01 00:20:29
  TRACK 23 AUDIO
    TITLE "Step2_Track06_23"
    INDEX 01 00:23:09
  TRACK 24 AUDIO
    TITLE "Step2_Track06_24"
    INDEX 01 00:23:49
  TRACK 25 AUDIO
    TITLE "Step2_Track06_25"
    INDEX 01 00:24:50
  TRACK 26 AUDIO
    TITLE "Step2_Track06_26"
    INDEX 01 00:24:56
  TRACK 27 AUDIO
    TITLE "Step2_Track06_27"
    INDEX 01 00:27:33
  TRACK 28 AUDIO
    TITLE "Step2_Track06_28"
    INDEX 01 00:27:66
  TRACK 29 AUDIO
    TITLE "Step2_Track06_29"
    INDEX 01 00:28:71
  TRACK 30 AUDIO
    TITLE "Step2_Track06_30"
    INDEX 01 00:29:10
  TRACK 31 AUDIO
    TITLE "Step2_Track06_31"
    INDEX 01 00:32:14
  TRACK 32 AUDIO
    TITLE "Step2_Track06_32"
    INDEX 01 00:32:38
  TRACK 33 AUDIO
    TITLE "Step2_Track06_33"
    INDEX 01 00:33:29
  TRACK 34 AUDIO
    TITLE "Step2_Track06_34"
    INDEX 01 00:33:45
  TRACK 35 AUDIO
    TITLE "Step2_Track06_35"
    INDEX 01 00:35:50
  TRACK 36 AUDIO
    TITLE "Step2_Track06_36"
    INDEX 01 00:36:10
  TRACK 37 AUDIO
    TITLE "Step2_Track06_37"
    INDEX 01 00:37:17
  TRACK 38 AUDIO
    TITLE "Step2_Track06_38"
    INDEX 01 00:37:33
  TRACK 39 AUDIO
    TITLE "Step2_Track06_39"
    INDEX 01 00:40:04
  TRACK 40 AUDIO
    TITLE "Step2_Track06_40"
    INDEX 01 00:40:20
  TRACK 41 AUDIO
    TITLE "Step2_Track06_41"
    INDEX 01 00:41:17
  TRACK 42 AUDIO
    TITLE "Step2_Track06_42"
    INDEX 01 00:41:43
  TRACK 43 AUDIO
    TITLE "Step2_Track06_43"
    INDEX 01 00:44:53
